Coordinates
version=1
nRows=18
nColumns=63
inDegrees=yes

Units are S.I. units (second, meters, Newtons, ...)
If the header above contains a line with 'inDegrees', this indicates whether rotational values are in degrees (yes) or radians (no).

endheader
time	pelvis_tilt	pelvis_list	pelvis_rotation	pelvis_tx	pelvis_ty	pelvis_tz	hip_flexion_r	hip_adduction_r	hip_rotation_r	knee_angle_r	knee_angle_r_beta	ankle_angle_r	subtalar_angle_r	mtp_angle_r	hip_flexion_l	hip_adduction_l	hip_rotation_l	knee_angle_l	knee_angle_l_beta	ankle_angle_l	subtalar_angle_l	mtp_angle_l	L5_S1_Flex_Ext	L5_S1_Lat_Bending	L5_S1_axial_rotation	L4_L5_Flex_Ext	L4_L5_Lat_Bending	L4_L5_axial_rotation	L3_L4_Flex_Ext	L3_L4_Lat_Bending	L3_L4_axial_rotation	L2_L3_Flex_Ext	L2_L3_Lat_Bending	L2_L3_axial_rotation	L1_L2_Flex_Ext	L1_L2_Lat_Bending	L1_L2_axial_rotation	L1_T12_Flex_Ext	L1_T12_Lat_Bending	L1_T12_axial_rotation	Abs_r3	Abs_r2	Abs_r1	Abs_t1	Abs_t2	neck_flexion	neck_bending	neck_rotation	arm_flex_r	arm_add_r	arm_rot_r	elbow_flex_r	pro_sup_r	wrist_flex_r	wrist_dev_r	arm_flex_l	arm_add_l	arm_rot_l	elbow_flex_l	pro_sup_l	wrist_flex_l	wrist_dev_l
0.000000	0.242138	-3.403306	86.589427	0.135842	0.971979	0.339305	-3.032397	-4.193129	-17.357237	7.678156	0.134009	33.986576	17.950542	0.000000	-2.595316	3.479678	18.114523	6.727521	0.117417	29.468932	-17.995857	0.000000	0.179071	-0.297144	0.396566	0.332552	-0.395201	0.421351	0.294195	-0.722475	0.421351	0.204660	-0.722475	0.346995	0.166285	-0.605935	0.322210	0.102321	-0.460276	0.297425	1.279084	-3.361349	2.205581	0.000000	0.000000	21.135858	5.723060	5.909010	13.740662	-18.833639	59.760103	86.814272	88.980568	1.884519	13.077112	17.650430	-36.807447	75.298921	91.324825	41.455803	7.211113	-20.303263
0.016667	0.315643	-3.408420	86.328323	0.136311	0.971891	0.338725	-2.998265	-4.132327	-17.290406	7.738342	0.135060	33.825074	17.913645	0.000000	-2.796074	3.378748	17.881956	6.613647	0.115430	28.718746	-18.178893	0.000000	0.184648	-0.281054	0.395778	0.342909	-0.373801	0.420514	0.303358	-0.683354	0.420514	0.211034	-0.683354	0.346306	0.171464	-0.573125	0.321570	0.105508	-0.435352	0.296834	1.318919	-3.179336	2.201199	0.000000	0.000000	20.828770	6.052106	6.803698	13.772755	-19.129958	60.439713	86.972001	87.520650	1.658472	12.829002	16.938065	-36.912819	75.187531	91.070104	45.443637	7.517455	-20.467978
0.033333	0.375805	-3.406082	86.084439	0.136708	0.971812	0.338267	-2.969932	-4.086486	-17.185707	7.789306	0.135949	33.702942	17.882447	0.000000	-2.941410	3.303596	17.651331	6.565988	0.114598	28.159989	-18.322377	0.000000	0.186830	-0.267827	0.408320	0.346962	-0.356210	0.433840	0.306943	-0.651196	0.433840	0.213528	-0.651196	0.357280	0.173490	-0.546154	0.331760	0.106755	-0.414865	0.306240	1.334506	-3.029718	2.270954	0.000000	0.000000	20.574121	6.299559	7.394340	13.768913	-19.409555	61.039432	87.092769	86.629148	1.555028	12.633540	16.462858	-36.964323	75.273127	90.811322	48.680320	7.912404	-20.622388
0.050000	0.423914	-3.397089	85.858058	0.137042	0.971739	0.337919	-2.947363	-4.053768	-17.048121	7.831367	0.136683	33.615502	17.856208	0.000000	-3.037501	3.251259	17.424797	6.576001	0.114773	27.772251	-18.430047	0.000000	0.186039	-0.257228	0.432778	0.345493	-0.342113	0.459826	0.305643	-0.625424	0.459826	0.212624	-0.625424	0.378681	0.172756	-0.524539	0.351632	0.106303	-0.398446	0.324583	1.328858	-2.909814	2.406981	0.000000	0.000000	20.366823	6.472712	7.711846	13.730498	-19.672340	61.559070	87.179937	86.212192	1.559481	12.485683	16.204910	-36.966102	75.533582	90.549275	51.246983	8.381930	-20.768250
0.066667	0.461258	-3.382239	85.649462	0.137319	0.971672	0.337670	-2.930523	-4.032336	-16.882630	7.864847	0.137267	33.558076	17.834186	0.000000	-3.090521	3.218773	17.204505	6.635142	0.115805	27.535118	-18.505645	0.000000	0.182697	-0.249018	0.467737	0.339287	-0.331194	0.496971	0.300153	-0.605463	0.496971	0.208805	-0.605463	0.409270	0.169653	-0.507798	0.380037	0.104393	-0.385729	0.350803	1.304987	-2.816945	2.601415	0.000000	0.000000	20.201789	6.578857	7.787124	13.658872	-19.918224	61.998441	87.236867	86.175914	1.657125	12.380389	16.144321	-36.922298	75.946770	90.284759	53.224756	8.912003	-20.907318
0.083333	0.489129	-3.362327	85.458933	0.137545	0.971607	0.337510	-2.919380	-4.020352	-16.694217	7.890064	0.137708	33.525986	17.815639	0.000000	-3.106645	3.203173	16.992605	6.734868	0.117546	27.428180	-18.552911	0.000000	0.177226	-0.242962	0.511785	0.329126	-0.323139	0.543771	0.291165	-0.590737	0.543771	0.202552	-0.590737	0.447812	0.164572	-0.495448	0.415825	0.101267	-0.376348	0.383839	1.265908	-2.748433	2.846394	0.000000	0.000000	20.073931	6.625288	7.651083	13.555397	-20.147118	62.357357	87.266922	86.426443	1.833255	12.312617	16.261192	-36.837054	76.490563	90.018570	54.694768	9.488594	-21.041348
0.100000	0.508816	-3.338152	85.286755	0.137728	0.971544	0.337426	-2.913898	-4.015979	-16.487863	7.907339	0.138009	33.514554	17.799827	0.000000	-3.092049	3.201496	16.791246	6.866634	0.119845	27.431023	-18.575586	0.000000	0.170047	-0.238822	0.563506	0.315795	-0.317633	0.598725	0.279371	-0.580671	0.598725	0.194347	-0.580671	0.493068	0.157906	-0.487005	0.457849	0.097165	-0.369935	0.422629	1.214632	-2.701597	3.134051	0.000000	0.000000	19.978161	6.619296	7.334631	13.421435	-20.358931	62.635629	87.273462	86.869910	2.073167	12.277323	16.535624	-36.714513	77.142835	89.751505	55.738148	10.097672	-21.172096
0.116667	0.521609	-3.310509	85.133211	0.137874	0.971482	0.337409	-2.914043	-4.017380	-16.268551	7.916992	0.138178	33.519100	17.786007	0.000000	-3.052908	3.210777	16.602580	7.021898	0.122555	27.523237	-18.577412	0.000000	0.161583	-0.236361	0.621487	0.300076	-0.314360	0.660330	0.265465	-0.574687	0.660330	0.184674	-0.574687	0.543801	0.150046	-0.481987	0.504958	0.092329	-0.366123	0.466115	1.154174	-2.673758	3.456523	0.000000	0.000000	19.909390	6.568174	6.868677	13.258347	-20.553575	62.833070	87.259850	87.412447	2.362154	12.269465	16.947719	-36.558815	77.881459	89.484359	56.436026	10.725208	-21.301316
0.133333	0.528797	-3.280196	84.998582	0.137990	0.971417	0.337447	-2.919781	-4.022716	-16.041264	7.919344	0.138219	33.534947	17.773438	0.000000	-2.995397	3.228054	16.428756	7.192115	0.125526	27.684408	-18.562128	0.000000	0.152255	-0.235342	0.684313	0.282754	-0.313005	0.727083	0.250140	-0.572211	0.727083	0.174013	-0.572211	0.598774	0.141384	-0.479910	0.556004	0.086999	-0.364545	0.513235	1.087545	-2.662238	3.805945	0.000000	0.000000	19.862530	6.479215	6.284130	13.067496	-20.730961	62.949492	87.229447	87.960183	2.685513	12.284000	17.477577	-36.374106	78.684309	89.217928	56.869532	11.357173	-21.430765
0.150000	0.531670	-3.248010	84.883152	0.138083	0.971349	0.337530	-2.931077	-4.030152	-15.810983	7.914713	0.138138	33.557417	17.761380	0.000000	-2.925692	3.250361	16.271925	7.368742	0.128609	27.894126	-18.533475	0.000000	0.142486	-0.235529	0.750571	0.264610	-0.313254	0.797482	0.234090	-0.572666	0.797482	0.162847	-0.572666	0.656750	0.132312	-0.480292	0.609839	0.081416	-0.364835	0.562928	1.017760	-2.664356	4.174452	0.000000	0.000000	19.832494	6.359712	5.611898	12.850243	-20.890998	62.984707	87.185615	88.419249	3.028537	12.315887	18.105298	-36.164525	79.529258	88.953008	57.119795	11.979535	-21.562197
0.166667	0.531519	-3.214748	84.787203	0.138159	0.971276	0.337645	-2.947898	-4.037848	-15.582691	7.903421	0.137941	33.581831	17.749090	0.000000	-2.849968	3.274735	16.134236	7.543235	0.131654	28.131978	-18.495194	0.000000	0.132696	-0.236685	0.818847	0.246429	-0.314792	0.870025	0.218006	-0.575477	0.870025	0.151658	-0.575477	0.716491	0.123221	-0.482649	0.665313	0.075822	-0.366626	0.614135	0.947832	-2.677433	4.554182	0.000000	0.000000	19.814194	6.216956	4.882890	12.607950	-21.033598	62.938528	87.131717	88.695776	3.376521	12.360083	18.810984	-35.934217	80.394180	88.690396	57.267945	12.578266	-21.697368
0.183333	0.533844	-3.189514	84.718783	0.138218	0.971191	0.337724	-2.968341	-4.038734	-15.368817	7.884047	0.137603	33.594091	17.734508	0.000000	-2.783232	3.290410	16.044470	7.676692	0.133984	28.372921	-18.443057	0.000000	0.123279	-0.237919	0.891158	0.228941	-0.316432	0.946855	0.202535	-0.578477	0.946855	0.140896	-0.578477	0.779763	0.114477	-0.485165	0.724066	0.070442	-0.368537	0.668368	0.880569	-2.691389	4.956353	0.000000	0.000000	19.798638	6.055177	4.083889	12.251349	-21.159351	62.690099	87.089086	87.890817	3.770194	12.462490	19.631328	-35.643857	81.200568	88.382866	57.958224	13.107774	-21.874598
0.200000	0.532211	-3.149230	84.687439	0.138265	0.971101	0.337790	-3.020055	-4.037876	-15.178391	7.848910	0.136989	33.581812	17.710901	0.000000	-2.742914	3.304637	15.990908	7.794267	0.136036	28.549167	-18.402888	0.000000	0.115438	-0.240516	0.962118	0.214381	-0.319886	1.022250	0.189654	-0.584790	1.022250	0.131934	-0.584790	0.841853	0.107196	-0.490460	0.781721	0.065961	-0.372559	0.721588	0.824564	-2.720763	5.351010	0.000000	0.000000	19.766822	5.886699	3.346790	11.873807	-21.263908	62.342363	87.044029	86.588873	4.088849	12.502739	20.501601	-35.358862	81.994227	88.106717	58.716139	13.588697	-22.051180
0.216667	0.528108	-3.101256	84.673348	0.138335	0.971002	0.337845	-3.089317	-4.034421	-15.005804	7.803736	0.136201	33.546044	17.682761	0.000000	-2.733740	3.313605	15.950869	7.873602	0.137420	28.640903	-18.376588	0.000000	0.110160	-0.244583	1.036233	0.204578	-0.325295	1.100998	0.180982	-0.594679	1.100998	0.125902	-0.594679	0.906704	0.102295	-0.498753	0.841939	0.062946	-0.378859	0.777175	0.786863	-2.766770	5.763218	0.000000	0.000000	19.723691	5.719328	2.631444	11.480806	-21.356962	61.898947	87.011694	84.818318	4.263730	12.502278	21.451771	-35.065729	82.844538	87.850903	59.506564	13.993616	-22.258148
0.233333	0.517558	-3.039538	84.681191	0.138410	0.970898	0.337873	-3.178932	-4.035761	-14.863141	7.759718	0.135433	33.505563	17.652908	0.000000	-2.753879	3.324761	15.939533	7.934308	0.138480	28.678791	-18.348925	0.000000	0.105277	-0.249348	1.097232	0.195510	-0.331633	1.165809	0.172960	-0.606265	1.165809	0.120321	-0.606265	0.960078	0.097760	-0.508471	0.891501	0.060155	-0.386240	0.822924	0.751983	-2.820678	6.102478	0.000000	0.000000	19.678831	5.551694	2.057862	11.128679	-21.414026	61.419812	86.977611	82.854318	4.340322	12.489797	22.255442	-34.797802	83.513096	87.647491	60.168863	14.274388	-22.440575
0.250000	0.513422	-2.989735	84.692730	0.138549	0.970779	0.337928	-3.264735	-4.020127	-14.731691	7.695689	0.134315	33.446428	17.621252	0.000000	-2.792765	3.317327	15.931720	7.936692	0.138521	28.632059	-18.340544	0.000000	0.103700	-0.254122	1.160763	0.192581	-0.337982	1.233310	0.170368	-0.617872	1.233310	0.118518	-0.617872	1.015667	0.096295	-0.518205	0.943120	0.059254	-0.393635	0.870572	0.740716	-2.874677	6.455813	0.000000	0.000000	19.613396	5.411554	1.525156	10.774055	-21.467365	60.882491	86.969304	80.605069	4.248724	12.522208	23.128504	-34.532108	84.286645	87.462589	60.828869	14.412276	-22.619506
0.266667	0.512001	-2.946030	84.695560	0.138746	0.970647	0.338022	-3.334447	-3.999048	-14.612699	7.642684	0.133390	33.400611	17.593544	0.000000	-2.843785	3.300931	15.920623	7.906065	0.137987	28.550097	-18.337586	0.000000	0.101861	-0.257441	1.207264	0.189166	-0.342396	1.282718	0.167347	-0.625942	1.282718	0.116417	-0.625942	1.056356	0.094588	-0.524973	0.980902	0.058203	-0.398776	0.905448	0.727581	-2.912222	6.714439	0.000000	0.000000	19.545753	5.289195	1.204120	10.502016	-21.489343	60.404551	86.955932	78.330530	4.127251	12.569216	23.758521	-34.297569	84.730101	87.260592	61.883353	14.564269	-22.807546
0.283333	0.527271	-2.933779	84.685817	0.139005	0.970474	0.338180	-3.359831	-3.954698	-14.509429	7.600833	0.132660	33.359579	17.568930	0.000000	-2.887087	3.256779	15.911770	7.826513	0.136598	28.440057	-18.341477	0.000000	0.102567	-0.257659	1.238477	0.190477	-0.342686	1.315881	0.168507	-0.626471	1.315881	0.117224	-0.626471	1.083667	0.095244	-0.525417	1.006262	0.058607	-0.399113	0.928857	0.732625	-2.914685	6.888035	0.000000	0.000000	19.484297	5.194191	1.041345	10.318498	-21.511308	60.043750	86.979378	75.932735	3.961254	12.758342	24.192704	-34.116193	84.993388	87.103136	63.019223	14.488489	-22.999675
